<?xml version="1.0"?>
<svg xmlns="http://www.w3.org/2000/svg" xmlns:xlink="http://www.w3.org/1999/xlink" version="1.1" id="Capa_1" x="0px" y="0px" viewBox="0 0 511.978 511.978" style="enable-background:new 0 0 511.978 511.978;" xml:space="preserve" width="512px" height="512px" class=""><g><g>
	<path style="fill:#FFFFFF" d="M351.603,301.639l150.069,150.069c13.758,13.804,13.739,36.141-0.042,49.922   s-36.118,13.8-49.922,0.042L301.639,351.603L351.603,301.639z" data-original="#35495E" class="" data-old_color="#ffffff"/>
	<path style="fill:#FFFFFF" d="M476.69,485.517c-4.163-0.041-7.72-3.011-8.502-7.1c-0.782-4.089,1.427-8.162,5.281-9.736   c3.854-1.574,8.283-0.213,10.588,3.255c2.304,3.467,1.844,8.078-1.1,11.022C481.264,484.569,479.026,485.483,476.69,485.517z" data-original="#2C2F38" class="active-path" data-old_color="#ffffff"/>
	<circle style="fill:#FFFFFF" cx="203.034" cy="203.034" r="203.034" data-original="#3F5C6C" class="" data-old_color="#ffffff"/>
	<path style="fill:#B0D3F0;" d="M370.759,203.034c0.025,46.066-18.944,90.104-52.436,121.732c-2.957-3.852-6.61-7.115-10.77-9.622   l-39.194-22.069l-26.483,20.833c-4.959,3.877-11.572,4.913-17.479,2.737l-12.535,18.803h-17.655l-12.535-18.803   c-5.907,2.176-12.519,1.141-17.479-2.737l-26.483-20.833l-39.194,22.069c-4.159,2.507-7.812,5.77-10.77,9.622   c-55.521-52.583-68.439-136.066-31.406-202.97S170.974,21.514,245.012,40.643S370.77,126.565,370.759,203.034z" data-original="#B0D3F0" class=""/>
	<path style="fill:#FFFFFF" d="M318.323,324.767c-24.731,23.498-56.058,38.868-89.777,44.05l-16.684-33.368l12.535-18.803   c5.907,2.176,12.519,1.141,17.479-2.737l26.483-20.833l39.194,22.069C311.712,317.651,315.365,320.915,318.323,324.767z" data-original="#35495E" class="" data-old_color="#ffffff"/>
	<path style="fill:#CC4B4C;" d="M228.546,368.817c-16.909,2.59-34.114,2.59-51.023,0l16.684-33.368h17.655L228.546,368.817z" data-original="#CC4B4C"/>
	<path style="fill:#FFFFFF" d="M194.207,335.448l-16.684,33.368c-33.718-5.181-65.045-20.552-89.777-44.05   c2.957-3.852,6.61-7.115,10.77-9.622l39.194-22.069l26.483,20.833c4.959,3.877,11.572,4.913,17.479,2.737L194.207,335.448z" data-original="#35495E" class="" data-old_color="#ffffff"/>
	<path style="fill:#7F8C8D;" d="M270.477,174.345v19.95c-0.043,5.587-2.259,10.938-6.179,14.919h-0.088   c-2.971,2.988-4.971,6.803-5.738,10.946c-4.581,11.596-10.989,22.385-18.979,31.956c-0.715,0.942-1.117,2.084-1.148,3.266v17.479   c-0.014,0.268,0.015,0.536,0.088,0.794h-0.088l-35.31,24.982l-35.31-24.982h-0.088c0.073-0.258,0.103-0.527,0.088-0.794v-17.479   c-0.031-1.182-0.432-2.325-1.148-3.266c-7.991-9.571-14.398-20.36-18.979-31.956c-0.767-4.143-2.767-7.958-5.738-10.946h-0.088   c-3.92-3.981-6.136-9.332-6.179-14.919v-19.95c0.005-3.286,0.792-6.524,2.295-9.446l1.148-2.383c1.445-2.94,2.199-6.17,2.207-9.446   v-28.69c0.007-24.813,20.12-44.925,44.932-44.932h33.721c24.813,0.007,44.925,20.12,44.932,44.932v28.69   c0.008,3.275,0.762,6.506,2.207,9.446l1.148,2.383C269.685,167.821,270.472,171.059,270.477,174.345z" data-original="#7F8C8D" class=""/>
	<g>
		<path style="fill:#ECF0F1;" d="M203.034,298.637l-15.095,14.301c-1.771,1.708-3.918,2.978-6.268,3.708    c-5.907,2.176-12.519,1.141-17.479-2.737l-26.483-20.833l27.189-15.36c1.501-0.847,2.515-2.352,2.737-4.061h0.088L203.034,298.637    z" data-original="#ECF0F1"/>
		<path style="fill:#ECF0F1;" d="M268.359,293.076l-26.483,20.833c-4.959,3.877-11.572,4.913-17.479,2.737    c-2.35-0.73-4.496-2-6.268-3.708l-15.095-14.301l35.31-24.982h0.088c0.222,1.709,1.236,3.214,2.737,4.061L268.359,293.076z" data-original="#ECF0F1"/>
	</g>
	<path style="fill:#802F34" d="M224.397,316.646l-12.535,18.803h-17.655l-12.535-18.803c2.35-0.73,4.496-2,6.268-3.708   l15.095-14.301l15.095,14.301C219.901,314.646,222.047,315.916,224.397,316.646z" data-original="#802F34" class=""/>
</g></g> </svg>
